<svg xmlns="http://www.w3.org/2000/svg" width="514" height="485" viewBox="0 0 514 485" version="1.1"><path d="M 188.121 164.127 C 165.276 167.922, 156.096 187.990, 169.613 204.585 L 174.023 210 170.935 210 C 167.004 210, 162 214.745, 162 218.473 C 162 222.306, 164.720 226.943, 167.613 228.043 C 168.997 228.569, 179.123 229, 190.115 229 C 215.394 229, 218 227.971, 218 217.989 C 218 214.796, 217.365 213.211, 215.232 211.079 C 212.758 208.604, 211.559 208.254, 203.919 207.778 C 194.458 207.187, 190.571 205.656, 186.619 200.959 C 182.557 196.131, 183.330 189.529, 188.273 186.830 C 189.498 186.161, 195.417 185.316, 201.428 184.951 C 211.670 184.330, 212.501 184.119, 214.678 181.588 C 217.454 178.360, 217.878 170.699, 215.471 167.261 C 212.658 163.247, 201.276 161.942, 188.121 164.127 M 265.454 171.326 C 265.008 173.103, 266.370 176.908, 270.420 185.205 C 275.772 196.171, 276 196.963, 276 204.619 C 276 213.012, 276.858 215.012, 280.450 214.985 C 284.684 214.953, 285.399 213.512, 285.987 203.810 C 286.521 195.013, 286.846 193.933, 291.875 184.211 C 295.856 176.514, 297.038 173.287, 296.564 171.400 C 296.028 169.264, 295.439 168.926, 292.716 169.189 C 289.892 169.462, 289.134 170.231, 286.493 175.500 C 284.839 178.800, 283.002 182.850, 282.412 184.500 C 281.339 187.497, 281.334 187.492, 276.919 178.500 C 272.838 170.188, 272.254 169.476, 269.284 169.189 C 266.583 168.928, 265.970 169.270, 265.454 171.326 M 314.193 169.860 C 313.474 170.316, 309.733 179.630, 305.879 190.558 C 300.020 207.176, 299.049 210.812, 299.945 212.779 C 301.652 216.524, 306.028 215.465, 308.332 210.750 L 310.165 207 318.005 207 L 325.845 207 327 210.500 C 329.011 216.593, 336.634 216.492, 336.381 210.376 C 336.248 207.154, 324.678 174.752, 322.411 171.250 C 320.914 168.939, 316.754 168.235, 314.193 169.860 M 347.529 171.315 C 346.695 172.589, 345.119 179.451, 344.028 186.565 C 342.938 193.679, 341.581 201.945, 341.014 204.934 C 340.446 207.923, 340.234 211.162, 340.542 212.133 C 341.748 215.932, 348.630 215.585, 349.459 211.683 C 349.714 210.483, 350.696 204.878, 351.640 199.228 C 352.584 193.578, 353.654 189.303, 354.018 189.728 C 354.381 190.153, 355.944 195.373, 357.490 201.329 C 360.360 212.384, 361.781 215, 364.916 215 C 368.016 215, 369.825 211.738, 373.116 200.216 C 374.879 194.041, 376.568 189.235, 376.869 189.536 C 377.170 189.837, 378.110 195.304, 378.958 201.685 C 380.616 214.158, 381.554 215.831, 386.235 214.656 C 387.634 214.305, 389.037 213.346, 389.351 212.527 C 389.666 211.707, 389.068 205.740, 388.022 199.268 C 386.976 192.796, 385.809 184.575, 385.428 181 C 384.423 171.547, 382.852 169.045, 377.905 169.015 C 374.033 168.992, 372.497 171.416, 368.883 183.250 C 367.077 189.162, 365.317 194, 364.971 194 C 364.625 194, 363.081 189.486, 361.541 183.969 C 360 178.452, 357.865 172.827, 356.797 171.469 C 354.230 168.206, 349.616 168.130, 347.529 171.315 M 396.245 170.155 C 395.332 171.068, 395 176.912, 395 192.078 C 395 214.660, 395.198 215.452, 400.690 214.822 C 403.445 214.506, 403.506 214.360, 403.791 207.386 C 404.033 201.461, 404.469 199.908, 406.399 198.095 L 408.716 195.919 414.820 205.459 C 419.678 213.052, 421.402 215, 423.262 215 C 426.146 215, 428 213.258, 427.999 210.550 C 427.998 209.423, 425.298 204.109, 421.999 198.741 C 418.699 193.374, 416 188.633, 416 188.207 C 416 187.781, 418.475 184.987, 421.500 182 C 427.109 176.461, 428.432 172.832, 425.800 170.200 C 423.053 167.453, 420.163 168.967, 412.816 176.999 C 408.792 181.399, 405.181 184.999, 404.792 184.999 C 404.403 185, 403.953 181.512, 403.792 177.250 L 403.500 169.500 400.495 169.205 C 398.842 169.043, 396.930 169.470, 396.245 170.155 M 315.693 190.748 C 314.757 193.362, 313.992 195.838, 313.995 196.250 C 313.998 196.662, 315.773 197, 317.939 197 L 321.879 197 320.306 192.250 C 318.087 185.545, 317.613 185.391, 315.693 190.748" stroke="none" fill="#0a0a0a" fill-rule="evenodd"/><path d="M 176.877 90.010 C 136.329 93.892, 103.026 121.692, 89.791 162.706 C 86.715 172.235, 86.629 173, 86.606 191 C 86.584 208.391, 86.748 210.039, 89.341 218.500 C 90.859 223.450, 94.070 231.430, 96.477 236.232 C 100.516 244.291, 103.946 250.302, 121.631 280.307 C 125.134 286.250, 128 291.307, 128 291.544 C 128 291.781, 130.854 296.818, 134.341 302.738 C 137.829 308.657, 145.096 321.150, 150.491 330.500 C 155.885 339.850, 162.652 351.550, 165.528 356.500 C 168.404 361.450, 172.568 368.653, 174.780 372.506 C 176.993 376.359, 179.635 380.247, 180.652 381.145 C 184.925 384.919, 192.286 384.248, 196.085 379.736 C 197.121 378.506, 203.488 367.917, 210.234 356.205 C 225.733 329.298, 225.184 330.246, 231.637 319.250 L 237.065 310 286.355 310 C 340.534 310, 341.463 309.909, 349.224 303.853 L 352.949 300.947 353.587 303.489 C 353.938 304.888, 355.360 306.925, 356.747 308.016 C 359.143 309.900, 360.869 310, 391.119 310 L 422.968 310 426.234 307.083 L 429.500 304.166 429.756 269.833 C 430.043 231.185, 430.080 231.414, 423.226 229.031 C 419.509 227.739, 418.491 227.739, 414.774 229.031 C 412.197 229.927, 410.057 231.475, 409.289 233 C 408.373 234.818, 408.025 242.658, 408.015 261.750 L 408 288 384.433 288 C 362.452 288, 360.901 287.882, 361.395 286.250 C 364.325 276.581, 364.679 267.507, 362.489 258.219 C 359.622 246.056, 352.944 237.077, 343.231 232.325 C 338.363 229.943, 336.496 229.609, 328.060 229.609 C 320.192 229.609, 317.612 230.009, 313.894 231.809 C 306.272 235.499, 301.370 240.472, 297.363 248.581 C 293.999 255.387, 293.630 256.966, 293.226 266.277 C 292.915 273.463, 293.233 278.208, 294.296 282.250 L 295.810 288 262.373 288 C 236.077 288, 228.225 288.297, 225.606 289.391 C 222.133 290.842, 220.484 293.194, 209.753 312 C 206.772 317.225, 202.120 325.336, 199.416 330.025 C 196.712 334.714, 193.901 339.702, 193.170 341.109 C 192.438 342.517, 190.818 344.950, 189.569 346.516 L 187.298 349.364 184.753 344.932 C 171.564 321.963, 158.837 299.918, 154.483 292.500 C 151.578 287.550, 148.211 281.700, 147 279.500 C 145.789 277.300, 142.417 271.450, 139.507 266.500 C 115.408 225.512, 112.183 218.898, 109.581 205.140 C 107.517 194.224, 107.602 186.555, 109.912 175.364 C 116.257 144.616, 140.696 119.875, 171.021 113.496 C 179.892 111.629, 195.439 111.567, 204 113.364 C 225.477 117.870, 244.360 131.300, 255.898 150.274 C 259.983 156.993, 266.994 158.671, 273.410 154.467 C 276.521 152.428, 278.445 146.301, 277.092 142.741 C 273.769 134.001, 258.503 116.320, 247.494 108.460 C 233.656 98.581, 215.819 91.804, 199 90.034 C 188.624 88.943, 188.028 88.942, 176.877 90.010 M 175.500 129.559 C 161.306 132.673, 147.043 141.229, 138.066 152.016 C 131.815 159.528, 128.947 164.498, 125.381 174 C 122.766 180.966, 122.566 182.532, 122.575 196 C 122.582 209.135, 122.832 211.190, 125.221 217.835 C 141.181 262.215, 193.451 278.537, 230.869 250.823 C 242.757 242.018, 252.858 226.953, 256.563 212.500 C 258.854 203.564, 258.894 188.768, 256.652 180 C 250.609 156.372, 232.553 137.633, 209 130.549 C 201.071 128.164, 184.143 127.664, 175.500 129.559 M 181.108 151.019 C 168.051 153.770, 155.631 163.318, 149.648 175.204 C 139.847 194.672, 143.555 215.051, 159.627 230.046 C 172.184 241.762, 191.026 245.177, 207 238.632 C 218.765 233.813, 228.389 224.110, 233.181 212.240 C 235.103 207.479, 235.493 204.709, 235.466 196 C 235.439 186.832, 235.084 184.662, 232.669 178.896 C 229.631 171.640, 222.248 162.629, 215.654 158.129 C 206.531 151.904, 191.545 148.819, 181.108 151.019 M 269 168.732 C 270.375 168.985, 272.175 169.711, 273 170.346 C 274.305 171.350, 274.322 171.273, 273.128 169.750 C 272.371 168.785, 270.576 168.061, 269.128 168.136 L 266.500 168.272 269 168.732 M 288.783 169.750 C 287.015 171.777, 284.993 175.500, 285.016 176.684 C 285.025 177.133, 286.051 175.702, 287.296 173.505 C 288.886 170.697, 290.441 169.320, 292.529 168.873 C 295.372 168.264, 295.389 168.232, 292.905 168.118 C 291.478 168.053, 289.623 168.787, 288.783 169.750 M 314.612 168.819 C 314.333 169.270, 315.432 169.443, 317.053 169.206 C 318.674 168.968, 320 168.599, 320 168.387 C 320 167.625, 315.107 168.017, 314.612 168.819 M 347.073 170.635 C 345.933 172.084, 345.039 174.222, 345.086 175.385 C 345.155 177.072, 345.343 176.931, 346.017 174.686 C 347.259 170.549, 348.902 169, 352.050 169 C 353.889 169, 355.568 169.907, 356.927 171.635 C 358.067 173.084, 359 173.837, 359 173.309 C 359 171.426, 354.327 168, 351.758 168 C 350.126 168, 348.367 168.989, 347.073 170.635 M 376.083 168.356 C 376.313 168.552, 378.075 169.002, 380 169.355 C 382.462 169.807, 383.055 169.706, 382 169.014 C 380.644 168.125, 375.092 167.508, 376.083 168.356 M 395.872 169.750 C 394.630 171.334, 394.665 171.371, 396.241 170.135 C 397.198 169.384, 399.312 168.966, 400.938 169.204 C 402.564 169.443, 403.667 169.270, 403.388 168.819 C 402.466 167.327, 397.268 167.970, 395.872 169.750 M 416.453 172.250 L 412.500 176.500 416.500 172.844 C 418.700 170.833, 421.400 168.972, 422.500 168.710 C 424.461 168.241, 424.460 168.230, 422.453 168.116 C 421.234 168.047, 418.808 169.718, 416.453 172.250 M 322.638 171.500 C 324.950 175.448, 325 175.507, 325 174.277 C 325 173.697, 324.073 172.159, 322.941 170.861 L 320.881 168.500 322.638 171.500 M 217.272 174 C 217.272 176.475, 217.467 177.488, 217.706 176.250 C 217.944 175.012, 217.944 172.988, 217.706 171.750 C 217.467 170.512, 217.272 171.525, 217.272 174 M 404.196 177.750 C 404.088 181.738, 404.372 185, 404.826 185 C 405.280 185, 406.742 183.762, 408.076 182.250 L 410.500 179.500 407.799 181.879 L 405.097 184.257 404.744 177.379 L 404.392 170.500 404.196 177.750 M 394.422 192 C 394.422 203.275, 394.568 207.887, 394.746 202.250 C 394.924 196.613, 394.924 187.387, 394.746 181.750 C 394.568 176.113, 394.422 180.725, 394.422 192 M 268 182 C 269.122 184.200, 270.266 186, 270.541 186 C 270.816 186, 270.122 184.200, 269 182 C 267.878 179.800, 266.734 178, 266.459 178 C 266.184 178, 266.878 179.800, 268 182 M 293.500 181 C 292.647 182.650, 292.174 184, 292.449 184 C 292.724 184, 293.647 182.650, 294.500 181 C 295.353 179.350, 295.826 178, 295.551 178 C 295.276 178, 294.353 179.350, 293.500 181 M 418.437 185.250 L 415.500 188.500 418.750 185.563 C 421.779 182.825, 422.460 182, 421.687 182 C 421.515 182, 420.052 183.463, 418.437 185.250 M 376.645 192 C 377.436 196.313, 378.005 197.126, 377.985 193.917 C 377.976 192.588, 377.527 190.825, 376.986 190 C 376.294 188.945, 376.193 189.538, 376.645 192 M 314.015 195.250 C 314.003 196.669, 314.803 196.970, 318.250 196.840 C 322.300 196.687, 322.336 196.660, 319.009 196.259 C 317.089 196.027, 315.183 195.311, 314.774 194.669 C 314.286 193.902, 314.025 194.102, 314.015 195.250 M 406.123 198.369 C 404.203 200.413, 403.947 201.612, 404.256 207.119 L 404.615 213.500 404.807 206.905 C 404.952 201.954, 405.457 199.897, 406.831 198.653 C 407.838 197.741, 409.035 197.334, 409.491 197.748 C 409.948 198.162, 409.997 197.938, 409.601 197.250 C 408.666 195.625, 408.716 195.609, 406.123 198.369 M 185 199.313 C 185 199.485, 186.463 200.948, 188.250 202.563 L 191.500 205.500 188.563 202.250 C 185.825 199.221, 185 198.540, 185 199.313 M 170.406 206.896 C 171.740 208.370, 171.830 208.910, 170.811 209.317 C 170.090 209.606, 170.591 209.878, 171.924 209.921 L 174.349 210 172 207.500 C 169.282 204.607, 167.840 204.061, 170.406 206.896 M 379.232 209 C 379.232 210.925, 379.438 211.713, 379.689 210.750 C 379.941 209.787, 379.941 208.213, 379.689 207.250 C 379.438 206.287, 379.232 207.075, 379.232 209 M 321.149 252.528 C 316.743 256.236, 314.572 262.701, 315.392 269.675 C 317.233 285.343, 327.004 293.066, 335.218 285.346 C 339.487 281.334, 341.003 277.104, 340.978 269.282 C 340.940 257.642, 335.774 250, 327.942 250 C 325.348 250, 323.206 250.798, 321.149 252.528 M 378.933 327.072 C 373.645 332.733, 374.448 341.061, 380.762 346.027 C 383.662 348.309, 390.252 348.622, 393.810 346.647 C 399.366 343.564, 401.537 335.873, 398.506 330.011 C 396.223 325.597, 393.214 324, 387.179 324 C 382.467 324, 381.448 324.379, 378.933 327.072 M 410.462 326.636 C 406.609 330.793, 405.712 335.563, 407.869 340.427 C 410.170 345.616, 411.954 347.050, 416.942 347.719 C 425.010 348.801, 431 343.395, 431 335.032 C 431 331.552, 430.395 330.195, 427.600 327.400 C 424.536 324.336, 423.642 324, 418.552 324 C 413.735 324, 412.545 324.388, 410.462 326.636" stroke="none" fill="#fab429" fill-rule="evenodd"/></svg>
